# xmcd
#
# Track frame offsets: 
#        150
#        12628
#        26370
#        40224
#        54179
#        67328
#        81299
#        96121
#        108610
#        119308
#        131381
#        145416
#        157668
#        167046
#        179913
#        191178
#        204930
#        218385
#        232602
#        241996
#        251348
#        262221
#
# Disc length: 3649 seconds
#
# Revision: 0
# Processed by: cddbd v1.5.2PL0 Copyright (c) Steve Scherf et al.
# Submitted via: ExactAudioCopy v0.99pb4
#
DISCID=320e3f16
DTITLE=Various Artist - Jumping the Blues from 6 to 6
DYEAR=2007
DGENRE=Blues
TTITLE0=Walter Page - Blue Devil Blues
TTITLE1=Joe Turner - Piney Brown Bues
TTITLE2=Joe Turner -  Johnson and Turner Blues
TTITLE3=Count Basie - Lazy Lady Blues
TTITLE4=Jay McShann - Come Over to My House
TTITLE5=Julie Lee - Tonight's the Night
TTITLE6=Jay McShann - When I've Been Drinking
TTITLE7=Bus Moten and His Men - You'll Wind Up on a Top
TTITLE8=Bus Moten and His Men - On the Gravy Train
TTITLE9=Walter Brown - Work Don't Bother Me
TTITLE10=Walter Brown - Nasty Attitude
TTITLE11=Priscilla Bowman and Jay McShenn - Hands Off
TTITLE12=Harmonica Slim - Going Back Home
TTITLE13=Jay McShann - The Duke and the Brute
TTITLE14=KC Mojo Watson - I Know You Don't Want Me
TTITLE15=George Smith - Telephone Bliues
TTITLE16=George Smith - Blues in the Dark
TTITLE17=George Smith - Blues Stay Away
TTITLE18=Joshua Johnson - Battin' the Boogie
TTITLE19=George Smith - Ramblin' Woman
TTITLE20=Little Hatchett - Hatchett's Harmonica Bounce
TTITLE21=Little Willie Littlefield - KC Loving
EXTD=
EXTT0=
EXTT1=
EXTT2=
EXTT3=
EXTT4=
EXTT5=
EXTT6=
EXTT7=
EXTT8=
EXTT9=
EXTT10=
EXTT11=
EXTT12=
EXTT13=
EXTT14=
EXTT15=
EXTT16=
EXTT17=
EXTT18=
EXTT19=
EXTT20=
EXTT21=
PLAYORDER=
